<?xml version="1.0" encoding="utf-8"?>
<!-- Svg Vector Icons : http://www.onlinewebfonts.com/icon -->
<!DOCTYPE svg PUBLIC "-//W3C//DTD SVG 1.1//EN" "http://www.w3.org/Graphics/SVG/1.1/DTD/svg11.dtd">
<svg version="1.1" xmlns="http://www.w3.org/2000/svg" xmlns:xlink="http://www.w3.org/1999/xlink" x="0px" y="0px" viewBox="0 0 1000 1000" enable-background="new 0 0 1000 1000" xml:space="preserve">
<metadata> Svg Vector Icons : http://www.onlinewebfonts.com/icon </metadata>
<g><path d="M869.5,455.6c-0.7,12.4,8.7,23,21.1,23.8l74.1,4.3c0.4,0,0.9,0,1.3,0c11.8,0,21.7-9.2,22.4-21.2c0.7-12.4-8.7-23-21.1-23.8l-74.1-4.3C880.8,433.8,870.2,443.3,869.5,455.6L869.5,455.6z"/><path d="M863.9,343.9c3.4,0,6.8-0.8,10-2.4l66.3-33.3c11.1-5.6,15.6-19.1,10-30.2c-5.5-11.1-19-15.5-30.1-10l-66.3,33.3c-11.1,5.6-15.6,19.1-10,30.2C847.7,339.4,855.7,343.9,863.9,343.9L863.9,343.9z"/><path d="M759.6,236.9c3.8,2.5,8.1,3.7,12.3,3.7c7.3,0,14.5-3.6,18.8-10.1l40.7-62c6.8-10.4,3.9-24.3-6.4-31.1c-10.4-6.8-24.3-3.9-31.1,6.4l-40.8,62C746.3,216.1,749.2,230.1,759.6,236.9L759.6,236.9z"/><path d="M639.2,197.1c0.4,0,0.9,0,1.3,0c11.8,0,21.7-9.2,22.4-21.2l4.3-74.1c0.7-12.4-8.7-23-21.1-23.8c-12.1-0.6-23,8.7-23.7,21.1l-4.3,74.1C617.4,185.7,626.8,196.3,639.2,197.1L639.2,197.1z"/><path d="M484.9,212.7c3.9,7.9,11.9,12.4,20.1,12.4c3.4,0,6.8-0.8,10.1-2.4c11.1-5.6,15.6-19.1,10-30.2l-33.3-66.3c-5.5-11.1-19-15.5-30.2-10c-11.1,5.6-15.6,19.1-10,30.2L484.9,212.7L484.9,212.7z"/><path d="M327.4,272.6l62,40.7c3.8,2.5,8.1,3.7,12.3,3.7c7.3,0,14.5-3.6,18.8-10.1c6.8-10.4,3.9-24.3-6.4-31.1l-62-40.7c-10.3-6.8-24.3-3.9-31.1,6.4C314.1,251.9,317,265.8,327.4,272.6L327.4,272.6z"/><path d="M810.1,476.9c1.6-8.1,2.6-16.2,3.1-24.5c2.9-50.3-13.9-98.7-47.4-136.3c-33.5-37.6-79.6-59.9-129.9-62.8c-66.6-3.8-131.3,29.3-168.1,84.9c-3.6-0.1-7-0.7-10.6-0.7c-153.5,0-279.8,119.1-291.3,269.8c-86.1,0.7-156,71-156,157.3C10,851.4,80.6,922,167.4,922h597.9C889.2,922,990,821.1,990,697.2C990,588.6,912.6,497.8,810.1,476.9L810.1,476.9L810.1,476.9z M633.4,298.2c38.3,2.2,73.4,19.2,98.9,47.9c25.5,28.6,38.3,65.5,36.1,103.8c-0.4,7.7-1.7,15.2-3.3,22.6c-19.2,0-38.3,2.5-57.1,7.6c-41.9-70.2-110.3-118.2-188.5-135.2C548.2,313.5,589.9,295.7,633.4,298.2L633.4,298.2L633.4,298.2z M765.2,877H167.4c-62,0-112.4-50.4-112.4-112.4c0-62,50.4-112.4,112.4-112.4c5.8,0,11.4,0.6,17,1.5l25.7,2.1v-26.1c0-136.3,110.9-247.3,247.2-247.3c93,0,177.3,51.6,219.9,134.6l9,17.5l18.6-6.7c19.7-7.1,40-10.6,60.4-10.6c99.2,0,179.8,80.7,179.8,179.8C945.1,796.3,864.4,877,765.2,877L765.2,877L765.2,877z"/></g>
</svg>